<svg xmlns="http://www.w3.org/2000/svg" width="64" height="64" viewBox="0 0 64 64">

<defs>
  <linearGradient id="g" x1="8" y1="8" x2="56" y2="56" gradientUnits="userSpaceOnUse">
    <stop offset="0" stop-color="#F26522"/>
    <stop offset="1" stop-color="#FF9147"/>
  </linearGradient>
  <linearGradient id="g2" x1="10" y1="54" x2="54" y2="10" gradientUnits="userSpaceOnUse">
    <stop offset="0" stop-color="#212121"/>
    <stop offset="1" stop-color="#404040"/>
  </linearGradient>
</defs>


<path d="M8 18.5C8 14.9 10.9 12 14.5 12h12l5 5H49.5c3.6 0 6.5 2.9 6.5 6.5v23C56 50.1 53.1 53 49.5 53h-35C10.9 53 8 50.1 8 46.5z"
      fill="url(#g2)" stroke="#F26522" stroke-width="1.7"/>
<path d="M10 25h44v21.5c0 2.5-2 4.5-4.5 4.5h-35A4.5 4.5 0 0 1 10 46.5z"
      fill="url(#g)" opacity=".34"/>
<path d="M15 31h25" stroke="#E3E3E3" stroke-width="1.4" opacity=".55" stroke-linecap="round"/>

</svg>
